<?xml version="1.0" encoding="UTF-8"?>
<svg width="169px" height="100px" viewBox="0 0 169 100" version="1.1" xmlns="http://www.w3.org/2000/svg" xmlns:xlink="http://www.w3.org/1999/xlink">
    <!-- Generator: Sketch 64 (93537) - https://sketch.com -->
    <title>click_energy_gradient</title>
    <desc>Created with Sketch.</desc>
    <defs>
        <linearGradient x1="81.4369698%" y1="51.341881%" x2="-25.8349695%" y2="58.8049316%" id="linearGradient-1">
            <stop stop-color="#65D5F9" offset="0%"></stop>
            <stop stop-color="#0D4BC6" offset="100%"></stop>
        </linearGradient>
        <linearGradient x1="0%" y1="50%" x2="100%" y2="50%" id="linearGradient-2">
            <stop stop-color="#3B93E1" offset="0%"></stop>
            <stop stop-color="#5BC4F4" offset="100%"></stop>
        </linearGradient>
    </defs>
    <g id="Page-1" stroke="none" stroke-width="1" fill="none" fill-rule="evenodd">
        <g id="Artboard" transform="translate(-762.000000, -462.000000)">
            <g id="click_energy_gradient" transform="translate(762.000000, 462.000000)">
                <g id="Group-2" transform="translate(-0.000000, 0.000000)">
                    <path d="M51.3571984,1.54039302e-13 C53.3390395,1.53675244e-13 54.9456392,1.60659966 54.9456392,3.58844077 L54.9456392,59.7761194 C54.9456392,63.2382029 57.7571886,66.0447761 61.2254105,66.0447761 C64.6936325,66.0447761 67.5051819,63.2382029 67.5051819,59.7761194 L67.5051819,28.8869482 C67.5051819,26.9051071 69.1117815,25.2985075 71.0936226,25.2985075 C73.0754638,25.2985075 74.6820634,26.9051071 74.6820634,28.8869482 L74.6820634,60.1458238 C74.4808567,67.3936598 68.5334552,73.2089552 61.2254105,73.2089552 C53.8525536,73.2089552 47.864581,67.2900552 47.7698962,59.9526794 L47.7687576,59.9521502 L47.7687576,3.58844077 C47.7687576,1.60659966 49.3753573,1.5440336e-13 51.3571984,1.54039302e-13 Z M132.769948,2.96943233e-14 C134.75179,2.9330265e-14 136.358389,1.60659966 136.358389,3.58844077 L136.357508,51.113 L162.508228,26.7700925 C163.958225,25.4203413 166.227322,25.4995798 167.579633,26.9471896 C168.928859,28.3914965 168.851781,30.6561023 167.407474,32.0053283 L167.402849,32.0096414 L150.211508,48.011 L167.547722,67.2299494 C168.873832,68.7001376 168.754921,70.965083 167.282126,72.2888464 C165.809331,73.6126099 163.54037,73.4939091 162.214259,72.0237209 L144.962508,52.897 L136.357508,60.907 L136.358389,69.6205144 C136.358389,71.6023556 134.75179,73.2089552 132.769948,73.2089552 C130.788107,73.2089552 129.181508,71.6023556 129.181508,69.6205144 L129.181508,3.58844077 C129.181508,1.60659966 130.788107,3.00583816e-14 132.769948,2.96943233e-14 Z M108.437,65.487 L108.651846,65.460952 L108.651846,65.460952 L108.462539,65.484295 L108.694184,65.4554255 L108.694184,65.4554255 L108.805,65.44 L108.877963,65.4301342 L108.877963,65.4301342 L108.924815,65.423347 L109.115,65.394 L109.127,65.392 L109.122,65.393 L109.134,65.391 L109.166201,65.3861814 C109.246469,65.3732088 109.326541,65.3596536 109.406413,65.3455204 L109.162,65.386 L109.134,65.391 L109.127,65.392 L109.162,65.386 L109.5575,65.3180529 C111.366537,64.980375 113.070813,64.3457201 114.61761,63.4667114 L114.884778,63.3095075 L115.053933,63.2078248 C116.592238,62.3328039 118.566076,62.6272859 119.777129,63.9655456 L119.913413,64.1245851 C121.242001,65.7623503 120.989009,68.1651482 119.34834,69.4913843 C119.104809,69.6882427 118.844392,69.8503165 118.573306,69.9781333 C117.401805,70.6579998 116.16739,71.2417222 114.880902,71.7184758 L114.326747,71.9160972 L114.262381,71.9380572 L114.132,71.981 L114.26,71.938 L113.906559,72.0557779 C113.966067,72.0366078 114.025474,72.017212 114.084778,71.9975916 L114.326747,71.9160972 C114.122256,71.9861907 113.916516,72.0536038 113.709571,72.1182946 L113.401762,72.2122393 L113.401762,72.2122393 C113.33648,72.2316829 113.271081,72.2508567 113.205567,72.2697594 C113.067241,72.3096686 112.928631,72.3483072 112.789521,72.3857287 C112.764493,72.3924615 112.739436,72.3991582 112.714363,72.4058153 C112.586943,72.439647 112.459061,72.4724695 112.330772,72.5042617 C112.272067,72.5188097 112.213294,72.5331379 112.154436,72.5472496 C112.07612,72.5660265 111.997643,72.5844229 111.919018,72.6024338 C111.539808,72.6892996 111.157231,72.7671856 110.771462,72.8358703 C110.721134,72.8448311 110.670716,72.8536414 110.620244,72.8622943 C110.528509,72.8780212 110.436642,72.8932211 110.344599,72.9078985 C110.244918,72.9237947 110.144898,72.9390978 110.044676,72.9537824 C109.98178,72.9629981 109.918801,72.9719706 109.855744,72.9806986 C109.736617,72.9971875 109.617188,73.0128063 109.497486,73.0275451 L109.297325,73.0513405 L109.297325,73.0513405 C109.181895,73.0645734 109.066208,73.0769894 108.950278,73.0885818 L108.760463,73.1068055 L108.760463,73.1068055 C108.635373,73.1183162 108.510116,73.1288602 108.384588,73.1384402 C108.326196,73.1428955 108.268141,73.1471149 108.210029,73.1511279 C108.051044,73.16211 107.89112,73.1715715 107.730782,73.1794623 C107.714259,73.1802753 107.697917,73.1810629 107.681571,73.1818342 C107.536971,73.1886578 107.391875,73.1942087 107.246453,73.1984681 L107.072804,73.2029365 L107.072804,73.2029365 L106.801181,73.2074503 L106.801181,73.2074503 L106.529475,73.2089552 C93.2759128,73.2089552 82.5317776,62.4838362 82.5317776,49.2537313 C82.5317776,36.0236265 93.2759128,25.2985075 106.529475,25.2985075 C106.711451,25.2985075 106.892953,25.3005294 107.073961,25.3045519 C107.166013,25.3066007 107.257101,25.309139 107.348061,25.3121825 C107.440082,25.3152598 107.53243,25.3188748 107.624643,25.3230093 C107.725879,25.3275488 107.826857,25.332709 107.927669,25.3384903 L108.149441,25.3522272 L108.149441,25.3522272 C108.267215,25.3600627 108.384955,25.3687626 108.502455,25.3783074 C108.567451,25.3835871 108.632404,25.3891281 108.697284,25.3949268 C108.791705,25.4033669 108.885721,25.4123279 108.979577,25.4218287 L109.271276,25.4531503 L109.271276,25.4531503 C109.367599,25.4640869 109.463633,25.4755782 109.55949,25.4876339 C109.620557,25.4953139 109.681612,25.5032309 109.742594,25.5113766 C109.861046,25.5271996 109.979039,25.5438576 110.096752,25.5613689 C110.184446,25.5744138 110.272169,25.5879616 110.359733,25.6019824 C110.429825,25.613205 110.499984,25.6247592 110.570041,25.6366164 C110.718269,25.6617069 110.865666,25.6880847 111.01259,25.7157994 C111.044164,25.7217548 111.076103,25.7278464 111.10802,25.7340012 C111.233272,25.7581571 111.357807,25.7832075 111.481988,25.8092163 L111.743772,25.8655779 L111.743772,25.8655779 C112.05302,25.9339769 112.359833,26.0082813 112.664278,26.0884076 C112.747835,26.1103996 112.830938,26.1327546 112.913861,26.1555426 C113.008672,26.181596 113.103612,26.2083202 113.198311,26.235611 C113.266439,26.2552454 113.334163,26.2750898 113.401762,26.2952235 C113.504712,26.3258862 113.607373,26.3572203 113.709739,26.3892204 L113.991,26.479 L114.111,26.519 L114.058056,26.5010479 C114.102184,26.5155897 114.146256,26.5302558 114.19027,26.5450458 L114.326747,26.5913655 C115.812779,27.1006329 117.234148,27.752165 118.573306,28.5293294 C118.844392,28.6571462 119.104809,28.81922 119.34834,29.0160784 C120.989009,30.3423145 121.242001,32.7451123 119.913413,34.3828776 C118.718554,35.8557943 116.651404,36.2083134 115.053933,35.2996379 L114.910778,35.2125075 L114.627093,35.0461443 C113.154881,34.2082215 111.539795,33.5917424 109.827346,33.2421357 L109.357934,33.1534392 L109.139964,33.1170628 L109.139964,33.1170628 L109.107,33.112 L109.14,33.117 L109.056,33.104 L109.091,33.11 L108.885,33.078 L108.746,33.059 L108.695214,33.0521731 L108.695214,33.0521731 L108.503,33.028 L108.448,33.021 L108.409,33.0169704 L108.409,33.0169704 L108.21,32.995 L107.951525,32.971241 L107.951525,32.971241 L108.114,32.986 L107.952952,32.9713636 L107.952952,32.9713636 L107.728,32.953 L107.703364,32.951811 L107.703364,32.951811 L107.727,32.953 L107.64,32.947 L107.485,32.937 L107.456,32.936 L107.466,32.936 L107.446,32.935 L107.38,32.932 L107.185482,32.9233273 C107.272149,32.9267364 107.358642,32.9308179 107.444958,32.9355669 L107.446,32.935 L107.456,32.936 L107.386943,32.932477 C107.382607,32.9322536 107.37827,32.9320319 107.373932,32.931812 L107.504582,32.9389551 C107.181968,32.9200389 106.856844,32.9104478 106.529475,32.9104478 L106.211061,32.9134769 C97.3158666,33.0828522 90.1572143,40.333775 90.1572143,49.2537313 C90.1572143,58.1736877 97.3158666,65.4246104 106.211061,65.5939858 L106.529475,65.5970149 C106.845219,65.5970149 107.158876,65.5880928 107.470205,65.5704874 C107.552759,65.5658177 107.634883,65.5605565 107.716839,65.5546932 L107.485,65.569 L107.731645,65.5536273 L107.731645,65.5536273 L107.793,65.548 L107.729,65.553 L107.917,65.538 L107.979,65.533 L107.969,65.534 L107.917,65.538 L107.793,65.548 L107.922092,65.538723 L107.922092,65.538723 L107.969,65.534 L107.991955,65.5326992 L107.991955,65.5326992 L107.984,65.533 L107.996,65.532 L108.126629,65.5202417 L108.126629,65.5202417 L108.009,65.53 L107.996,65.532 L107.991955,65.5326992 L108.009,65.53 L108.126629,65.5202417 L108.126629,65.5202417 L108.143,65.518 L108.17,65.515 L108.168,65.516 L108.143,65.518 L108.138,65.519 L108.168,65.516 L108.21,65.511 L108.22774,65.5101552 C108.260781,65.506756 108.293794,65.5032588 108.326776,65.4996638 L108.21,65.511 L108.17,65.515 L108.389865,65.4926641 L108.389865,65.4926641 L108.392703,65.4923434 L108.437,65.487 Z M71.0936226,11.1940299 C73.570924,11.1940299 75.5791736,13.198725 75.5791736,15.6716418 C75.5791736,18.1445586 73.570924,20.1492537 71.0936226,20.1492537 C68.6163213,20.1492537 66.6080717,18.1445586 66.6080717,15.6716418 C66.6080717,13.198725 68.6163213,11.1940299 71.0936226,11.1940299 Z M25.237,65.55 L25.3903145,65.538723 L25.3903145,65.538723 L25.424,65.535 L25.439,65.534 L25.478,65.53 L25.5948511,65.5202417 L25.5948511,65.5202417 L25.493,65.529 L25.478,65.53 L25.4601772,65.5326992 L25.493,65.529 L25.609,65.518 L25.638,65.515 L25.634,65.516 L25.609,65.518 L25.5948511,65.5202417 L25.634,65.516 L25.665,65.513 L25.6959619,65.5101552 L25.6959619,65.5101552 L25.858,65.492 L25.791,65.499 L25.665,65.513 L25.638,65.515 L25.791,65.499 L25.883,65.489 L26.1200686,65.460952 L26.1200686,65.460952 L25.9307613,65.484295 L26.1624061,65.4554255 L26.1624061,65.4554255 L26.261,65.441 L26.3461852,65.4301342 L26.3461852,65.4301342 L26.378,65.425 L26.386,65.424 L26.385,65.424 L26.308,65.435 L26.261,65.441 L26.1200686,65.460952 L26.308,65.435 L26.385,65.424 L26.393037,65.423347 L26.498,65.407 L26.435,65.417 L26.583,65.394 L26.593,65.392 L26.589,65.393 L26.605,65.39 L26.6344232,65.3861814 C26.7146911,65.3732088 26.7947635,65.3596536 26.8746358,65.3455204 L26.659,65.381 L27.0257224,65.3180529 C28.8347592,64.980375 30.5390349,64.3457201 32.0858329,63.4667114 L32.3466597,63.313986 L32.353,63.309 L32.355,63.308 L32.5221554,63.2078248 C34.0604605,62.3328039 36.0342983,62.6272859 37.2453519,63.9655456 L37.3816355,64.1245851 C38.7102231,65.7623503 38.4572311,68.1651482 36.816562,69.4913843 C36.5730311,69.6882427 36.3126146,69.8503165 36.0415283,69.9781333 C34.8700278,70.6579998 33.635612,71.2417222 32.3491248,71.7184758 L31.7949694,71.9160972 L31.7306038,71.9380572 L31.7949694,71.9160972 C31.590478,71.9861907 31.3847387,72.0536038 31.1777936,72.1182946 C31.0755954,72.1502424 30.9729348,72.1815765 30.8699842,72.2122393 C30.8047023,72.2316829 30.7393035,72.2508567 30.6737894,72.2697594 C30.5354636,72.3096686 30.3968537,72.3483072 30.2577436,72.3857287 C30.2327149,72.3924615 30.2076582,72.3991582 30.1825853,72.4058153 C30.0551655,72.439647 29.9272838,72.4724695 29.7989945,72.5042617 C29.7402894,72.5188097 29.681516,72.5331379 29.6226582,72.5472496 C29.5443426,72.5660265 29.4658651,72.5844229 29.3872401,72.6024338 C29.0080301,72.6892996 28.6254529,72.7671856 28.2396841,72.8358703 C28.189356,72.8448311 28.1389381,72.8536414 28.0884663,72.8622943 C27.9967317,72.8780212 27.9048641,72.8932211 27.8128219,72.9078985 C27.7131401,72.9237947 27.61312,72.9390978 27.5128986,72.9537824 C27.4500019,72.9629981 27.3870231,72.9719706 27.3239659,72.9806986 C27.204839,72.9971875 27.0854103,73.0128063 26.9657086,73.0275451 L26.7655478,73.0513405 L26.7655478,73.0513405 C26.6501176,73.0645734 26.5344306,73.0769894 26.4185003,73.0885818 L26.2286849,73.1068055 L26.2286849,73.1068055 C26.1035957,73.1183162 25.9783379,73.1288602 25.85281,73.1384402 C25.7944184,73.1428955 25.7363635,73.1471149 25.6782518,73.1511279 C25.5192665,73.16211 25.3593423,73.1715715 25.1990043,73.1794623 L25.1497933,73.1818342 L25.1497933,73.1818342 C25.0051938,73.1886578 24.860097,73.1942087 24.7146756,73.1984681 C24.6571956,73.200153 24.5991363,73.2016478 24.5410262,73.2029365 L24.269403,73.2074503 L24.269403,73.2074503 L23.9976977,73.2089552 C10.7441352,73.2089552 1.89059123e-13,62.4838362 1.89059123e-13,49.2537313 C1.89059123e-13,36.0236265 10.7441352,25.2985075 23.9976977,25.2985075 C24.1796729,25.2985075 24.3611751,25.3005294 24.5421829,25.3045519 C24.6342356,25.3066007 24.7253237,25.309139 24.8162835,25.3121825 C24.9083043,25.3152598 25.0006524,25.3188748 25.092865,25.3230093 C25.1941013,25.3275488 25.2950798,25.332709 25.3958915,25.3384903 L25.6176638,25.3522272 L25.6176638,25.3522272 C25.7354374,25.3600627 25.853177,25.3687626 25.9706772,25.3783074 C26.0356732,25.3835871 26.1006269,25.3891281 26.1655061,25.3949268 C26.2599276,25.4033669 26.3539435,25.4123279 26.4477996,25.4218287 L26.7394988,25.4531503 L26.7394988,25.4531503 C26.8358214,25.4640869 26.9318551,25.4755782 27.0277127,25.4876339 C27.0887797,25.4953139 27.1498345,25.5032309 27.2108168,25.5113766 C27.3292688,25.5271996 27.4472614,25.5438576 27.5649748,25.5613689 C27.6526687,25.5744138 27.7403911,25.5879616 27.8279553,25.6019824 C27.8980472,25.613205 27.9682068,25.6247592 28.0382631,25.6366164 C28.1864911,25.6617069 28.3338886,25.6880847 28.4808128,25.7157994 C28.5123869,25.7217548 28.5443257,25.7278464 28.5762419,25.7340012 C28.7014944,25.7581571 28.826029,25.7832075 28.9502104,25.8092163 C29.0375047,25.8274985 29.1248387,25.8463017 29.2119945,25.8655779 C29.521242,25.9339769 29.8280552,26.0082813 30.1325008,26.0884076 C30.216057,26.1103996 30.2991599,26.1327546 30.3820831,26.1555426 L30.6665334,26.235611 L30.6665334,26.235611 C30.7346616,26.2552454 30.8023856,26.2750898 30.8699846,26.2952235 C30.9729348,26.3258862 31.0755954,26.3572203 31.177961,26.3892204 L31.459,26.479 L31.579,26.519 L31.5262787,26.5010479 C31.5704067,26.5155897 31.6144781,26.5302558 31.6584924,26.5450458 L31.7949694,26.5913655 C33.2810009,27.1006329 34.7023706,27.752165 36.0415283,28.5293294 C36.3126146,28.6571462 36.5730311,28.81922 36.816562,29.0160784 C38.4572311,30.3423145 38.7102231,32.7451123 37.3816355,34.3828776 C36.1867763,35.8557943 34.1196261,36.2083134 32.5221554,35.2996379 L32.379,35.2125075 L32.0953156,35.0461443 C30.6231034,34.2082215 29.0080177,33.5917424 27.2955679,33.2421357 L26.8261563,33.1534392 L26.6081859,33.1170628 L26.6081859,33.1170628 L26.576,33.112 L26.609,33.117 L26.3892531,33.0835624 L26.3892531,33.0835624 L26.524,33.104 L26.353,33.078 L26.214,33.059 L26.163436,33.0521731 L26.163436,33.0521731 L25.961,33.026 L25.926,33.022 L25.924,33.022 L25.912,33.021 L25.8772222,33.0169704 L25.8772222,33.0169704 L25.678,32.995 L25.419747,32.971241 L25.419747,32.971241 L25.6696991,32.994627 C25.5043761,32.9778873 25.3383261,32.9636029 25.1715863,32.951811 L25.195,32.953 L25.105,32.947 L24.957,32.937 L24.928,32.936 L24.937,32.936 L24.9101921,32.9354028 C24.8248687,32.9307238 24.7393712,32.926697 24.6537045,32.9233273 L24.853,32.932 L24.9101921,32.9354028 C24.9111881,32.9354574 24.9121841,32.9355121 24.9131801,32.9355669 L24.928,32.936 L24.853,32.932 L24.4870339,32.9176079 C24.3245051,32.9128456 24.1613819,32.9104478 23.9976977,32.9104478 L23.679283,32.9134769 C14.7840889,33.0828522 7.62543665,40.333775 7.62543665,49.2537313 C7.62543665,58.1736877 14.7840889,65.4246104 23.679283,65.5939858 L23.9976977,65.5970149 C24.3134417,65.5970149 24.6270981,65.5880928 24.9384277,65.5704874 C25.007666,65.5665709 25.0766022,65.5622383 25.1453911,65.5574833 L25.191,65.554 L25.198,65.553 L25.385,65.538 L25.237,65.55 Z" id="Combined-Shape" fill="url(#linearGradient-1)"></path>
                    <path d="M58.6593382,99.7402985 L58.6593382,98.2626866 L53.0523995,98.2626866 L53.0523995,95.0238806 L57.7921317,95.0238806 L57.7921317,93.6358209 L53.0523995,93.6358209 L53.0523995,90.6208955 L58.5247716,90.6208955 L58.5247716,89.1432836 L51.3777938,89.1432836 L51.3777938,99.7402985 L58.6593382,99.7402985 Z M63.5635406,99.7402985 L63.5635406,92.2776119 L69.5741789,99.7402985 L70.9646997,99.7402985 L70.9646997,89.158209 L69.2751421,89.158209 L69.2751421,96.7850746 L63.2046965,89.1432836 L61.8889349,89.1432836 L61.8889349,99.7402985 L63.5635406,99.7402985 Z M82.1337216,99.7402985 L82.1337216,98.2626866 L76.5267829,98.2626866 L76.5267829,95.0238806 L81.2665151,95.0238806 L81.2665151,93.6358209 L76.5267829,93.6358209 L76.5267829,90.6208955 L81.999155,90.6208955 L81.999155,89.1432836 L74.8521772,89.1432836 L74.8521772,99.7402985 L82.1337216,99.7402985 Z M87.037924,99.7402985 L87.037924,96.0537313 L89.4900252,96.0537313 L91.792608,99.7402985 L93.6914912,99.7402985 L91.1945345,95.7104478 C91.5035392,95.6109453 91.787624,95.459204 92.0467892,95.2552239 C92.3059544,95.0512438 92.525248,94.8099502 92.70467,94.5313433 C92.8840921,94.2527363 93.0236425,93.9492537 93.1233214,93.6208955 C93.2230004,93.2925373 93.2728398,92.9492537 93.2728398,92.5910448 C93.2728398,92.1631841 93.1906047,91.7427861 93.0261345,91.3298507 C92.8616643,90.9169154 92.6348948,90.5487562 92.3458259,90.2253731 C92.0567571,89.90199 91.7103729,89.640796 91.3066733,89.441791 C90.9029737,89.2427861 90.4618945,89.1432836 89.9834358,89.1432836 L89.9834358,89.1432836 L85.3633183,89.1432836 L85.3633183,99.7402985 L87.037924,99.7402985 Z M89.9684839,94.5761194 L87.037924,94.5761194 L87.037924,90.6208955 L89.8787729,90.6208955 C90.0980665,90.6208955 90.3098842,90.6731343 90.514226,90.7776119 C90.7185677,90.8820896 90.8979898,91.0238806 91.0524921,91.2029851 C91.2069944,91.3820896 91.331593,91.5910448 91.426288,91.8298507 C91.520983,92.0686567 91.5683304,92.3223881 91.5683304,92.5910448 C91.5683304,92.8597015 91.5284589,93.1134328 91.4487158,93.3522388 C91.3689726,93.5910448 91.2593258,93.8024876 91.1197753,93.9865672 C90.9802249,94.1706468 90.8132627,94.3149254 90.6188888,94.419403 C90.4245149,94.5238806 90.2077133,94.5761194 89.9684839,94.5761194 L89.9684839,94.5761194 Z M101.077698,99.8149254 C102.243942,99.8149254 103.275618,99.3522388 104.172729,98.4268657 L104.172729,98.4268657 L104.172729,99.7402985 L105.578201,99.7402985 L105.578201,94.3820896 L101.944905,94.3820896 L101.944905,95.6208955 L104.172729,95.6208955 L104.172729,96.7552239 C103.724174,97.2925373 103.253191,97.6855721 102.75978,97.9343284 C102.26637,98.1830846 101.750531,98.3074627 101.212265,98.3074627 C100.723838,98.3074627 100.270299,98.2054726 99.8516479,98.0014925 C99.4329965,97.7975124 99.0716604,97.521393 98.7676397,97.1731343 C98.4636191,96.8248756 98.2243897,96.4169154 98.0499516,95.9492537 C97.8755135,95.481592 97.7882945,94.9791045 97.7882945,94.441791 C97.7882945,93.9343284 97.8655456,93.4467662 98.0200479,92.9791045 C98.1745502,92.5114428 98.3963358,92.100995 98.6854046,91.7477612 C98.9744735,91.3945274 99.3233497,91.1109453 99.7320332,90.8970149 C100.140717,90.6830846 100.594256,90.5761194 101.09265,90.5761194 C101.700692,90.5761194 102.258894,90.720398 102.767256,91.0089552 C103.275618,91.2975124 103.674334,91.7303483 103.963403,92.3074627 L103.963403,92.3074627 L105.249261,91.3820896 C104.900385,90.6855721 104.382054,90.1258706 103.69427,89.7029851 C103.006485,89.2800995 102.154231,89.0686567 101.137506,89.0686567 C100.40985,89.0686567 99.7370172,89.2104478 99.1190079,89.4940299 C98.5009987,89.7776119 97.9677165,90.1631841 97.5191614,90.6507463 C97.0706063,91.1383085 96.7192381,91.7054726 96.4650569,92.3522388 C96.2108757,92.999005 96.0837851,93.680597 96.0837851,94.3970149 C96.0837851,95.1134328 96.2108757,95.8 96.4650569,96.4567164 C96.7192381,97.1134328 97.0706063,97.6905473 97.5191614,98.1880597 C97.9677165,98.6855721 98.4960147,99.0810945 99.1040561,99.3746269 C99.7120974,99.6681592 100.369978,99.8149254 101.077698,99.8149254 Z M113.084023,99.7402985 L113.084023,95.9492537 L117.04626,89.1432836 L115.207184,89.1432836 L112.24672,94.4567164 L109.31616,89.1432836 L107.477085,89.1432836 L111.409418,95.919403 L111.409418,99.7402985 L113.084023,99.7402985 Z" id="ENERGY" fill="url(#linearGradient-2)" fill-rule="nonzero"></path>
                </g>
            </g>
        </g>
    </g>
</svg>
